<svg xmlns="http://www.w3.org/2000/svg" xmlns:xlink="http://www.w3.org/1999/xlink" viewBox="0 0 16 16" version="1.1" width="50" height="50" fill="ffffff">
<g id="surface1">
<path style=" " d="M 2.464844 1 L 4.152344 2.6875 C 2.835938 3.878906 2 5.589844 2 7.5 C 2 11.085938 4.914063 14 8.5 14 C 12.085938 14 15 11.085938 15 7.5 C 15 3.914063 12.085938 1 8.5 1 L 8 1 L 8 2 L 8.5 2 C 11.542969 2 14 4.457031 14 7.5 C 14 10.542969 11.542969 13 8.5 13 C 5.457031 13 3 10.542969 3 7.5 C 3 5.859375 3.722656 4.402344 4.859375 3.394531 L 6 4.535156 L 6 1 Z "/>
</g>
</svg>