<svg xmlns="http://www.w3.org/2000/svg" xmlns:xlink="http://www.w3.org/1999/xlink" viewBox="0 0 16 16" version="1.1" width="50" height="50" fill="ffffff">
<g id="surface1">
<path style=" " d="M 1.726563 1.023438 L 1.023438 1.726563 L 2.582031 3.289063 L 11.015625 11.722656 L 11.722656 12.433594 L 13.269531 13.980469 L 13.980469 13.269531 L 12.421875 11.71875 C 13.398438 10.582031 14 9.113281 14 7.5 L 14 7 L 13 7 L 13 7.5 C 13 8.835938 12.515625 10.058594 11.71875 11.011719 L 4.007813 3.296875 C 4.957031 2.515625 6.171875 2.035156 7.5 2.035156 C 9.078125 2.035156 10.558594 2.726563 11.59375 3.875 L 10.464844 5 L 14 5 L 14 1.476563 L 12.300781 3.167969 C 11.082031 1.835938 9.34375 1.035156 7.5 1.035156 C 5.894531 1.035156 4.433594 1.628906 3.300781 2.59375 Z M 1.984375 4.105469 C 1.363281 5.097656 1 6.265625 1 7.515625 L 1 8 L 2 8 L 2 7.515625 C 2 6.542969 2.261719 5.628906 2.710938 4.832031 Z M 1 10 L 1 13.535156 L 2.6875 11.847656 C 3.90625 13.191406 5.648438 14 7.5 14 C 8.75 14 9.914063 13.640625 10.90625 13.027344 L 10.175781 12.296875 C 9.382813 12.742188 8.472656 13 7.5 13 C 5.917969 13 4.429688 12.300781 3.394531 11.140625 L 4.535156 10 Z "/>
</g>
</svg>